<svg width="17" height="18" viewBox="0 0 17 18" fill="none" xmlns="http://www.w3.org/2000/svg">
<g id="check 1">
<path id="Vector" d="M7.80258 12.054C7.61279 12.054 7.44407 11.9686 7.33864 11.8405L4.15436 8.33795C3.92239 8.08169 3.9435 7.67589 4.19654 7.44096C4.44958 7.20604 4.85027 7.22742 5.08224 7.48368L7.82365 10.495L15.4153 2.82789C15.6683 2.57163 16.069 2.57163 16.301 2.82789C16.533 3.08416 16.554 3.48996 16.301 3.72489L8.24544 11.8618C8.13997 11.99 7.97129 12.054 7.80258 12.054Z" fill="#3390EC"/>
<path id="Vector_2" d="M8.39299 17.5C3.77472 17.5 0 13.6771 0 9.00002C0 4.32289 3.77472 0.5 8.39299 0.5C8.7515 0.5 9.02561 0.777645 9.02561 1.14068C9.02561 1.50372 8.75146 1.78137 8.39299 1.78137C4.47062 1.78137 1.26528 5.02759 1.26528 8.99998C1.26528 12.9724 4.47062 16.2186 8.39299 16.2186C12.3154 16.2186 15.5207 12.9724 15.5207 8.99998C15.5207 8.6369 15.7949 8.35929 16.1533 8.35929C16.5118 8.35929 16.7859 8.63694 16.7859 8.99998C16.7859 13.6771 13.0112 17.5 8.39299 17.5Z" fill="#3390EC"/>
</g>
</svg>
