<svg width="31" height="30" viewBox="0 0 31 30" fill="none" xmlns="http://www.w3.org/2000/svg">
<circle cx="15.5" cy="15" r="15" fill="white"/>
<path d="M13.4779 8.93377L12.7664 9.17094V9.17094L13.4779 8.93377ZM14.4757 11.9272L13.7642 12.1644L14.4757 11.9272ZM13.9743 13.1379L14.3097 13.8087H14.3097L13.9743 13.1379ZM12.4753 13.8874L12.1398 13.2166C11.7798 13.3966 11.6261 13.8287 11.7915 14.1956L12.4753 13.8874ZM16.6126 18.0247L16.3044 18.7085C16.6713 18.8739 17.1034 18.7202 17.2834 18.3602L16.6126 18.0247ZM17.3621 16.5257L16.6913 16.1903V16.1903L17.3621 16.5257ZM18.5728 16.0243L18.3356 16.7358L18.5728 16.0243ZM21.5662 17.0221L21.3291 17.7336H21.3291L21.5662 17.0221ZM10.75 7.5C9.23122 7.5 8 8.73122 8 10.25H9.5C9.5 9.55964 10.0596 9 10.75 9V7.5ZM12.5292 7.5H10.75V9H12.5292V7.5ZM14.1894 8.6966C13.9512 7.982 13.2825 7.5 12.5292 7.5V9C12.6368 9 12.7324 9.06886 12.7664 9.17094L14.1894 8.6966ZM15.1873 11.69L14.1894 8.6966L12.7664 9.17094L13.7642 12.1644L15.1873 11.69ZM14.3097 13.8087C15.0886 13.4192 15.4626 12.5162 15.1873 11.69L13.7642 12.1644C13.8036 12.2824 13.7501 12.4114 13.6389 12.467L14.3097 13.8087ZM12.8107 14.5582L14.3097 13.8087L13.6389 12.467L12.1398 13.2166L12.8107 14.5582ZM16.9209 17.341C15.2541 16.5895 13.9105 15.2459 13.159 13.5791L11.7915 14.1956C12.6934 16.1959 14.3041 17.8066 16.3044 18.7085L16.9209 17.341ZM16.6913 16.1903L15.9418 17.6893L17.2834 18.3602L18.033 16.8611L16.6913 16.1903ZM18.81 15.3128C17.9838 15.0374 17.0808 15.4114 16.6913 16.1903L18.033 16.8611C18.0886 16.7499 18.2176 16.6964 18.3356 16.7358L18.81 15.3128ZM21.8034 16.3106L18.81 15.3128L18.3356 16.7358L21.3291 17.7336L21.8034 16.3106ZM23 17.9708C23 17.2175 22.518 16.5488 21.8034 16.3106L21.3291 17.7336C21.4311 17.7676 21.5 17.8632 21.5 17.9708H23ZM23 19.75V17.9708H21.5V19.75H23ZM20.25 22.5C21.7688 22.5 23 21.2688 23 19.75H21.5C21.5 20.4404 20.9404 21 20.25 21V22.5ZM20 22.5H20.25V21H20V22.5ZM8 10.5C8 17.1274 13.3726 22.5 20 22.5V21C14.201 21 9.5 16.299 9.5 10.5H8ZM8 10.25V10.5H9.5V10.25H8Z" fill="#0250C7"/>
</svg>
