<svg xmlns="http://www.w3.org/2000/svg" viewBox="0 0 500 550"><defs><style>.cls-1{isolation:isolate;}.cls-2{fill:none;stroke-miterlimit:10;stroke-width:2px;}.cls-2,.cls-3{stroke:#00007f;}.cls-3{fill:#28219e;stroke-linecap:round;stroke-linejoin:round;}.cls-10,.cls-4,.cls-5,.cls-6,.cls-7,.cls-8{fill:#00007f;}.cls-5{mix-blend-mode:screen;}.cls-6{opacity:0.6;mix-blend-mode:multiply;}.cls-7{opacity:0.45;}.cls-8{font-size:50px;}.cls-10,.cls-8{font-family:CorporateAPro-Medium, Corporate A Pro;font-weight:500;}.cls-9{font-size:58px;}.cls-10{font-size:14px;}</style></defs><g class="cls-1"><g id="OBJECTS"><polyline class="cls-2" points="399.51 361.91 399.51 479.98 99.66 479.98 99.66 366.19"/><polyline class="cls-2" points="99.66 228.84 99.66 70.77 401.07 70.77 401.07 221.81"/><line class="cls-3" x1="150.77" y1="408.34" x2="349.69" y2="408.34"/><rect class="cls-4" x="225.93" y="129.06" width="0.38" height="28.2"/><polygon class="cls-4" points="220.43 157.3 220.06 157.23 225.32 129.59 225.69 129.67 220.43 157.3"/><polygon class="cls-4" points="231.81 157.3 226.55 129.67 226.92 129.59 232.18 157.23 231.81 157.3"/><path class="cls-4" d="M226.12,164.63c4.74,0,8.59-3.55,8.59-7.94H217.53C217.53,161.08,221.37,164.63,226.12,164.63Z"/><path class="cls-5" d="M234.62,157.83c0-.12,0-.24,0-.37h-17.1c0,.13,0,.25.05.37Z"/><path class="cls-4" d="M249.47,124.46a9.2,9.2,0,0,0-8,1c-3.68,2.62-9.46,5-14.84,4.32v-1.25a20.71,20.71,0,0,0,9.65-4.4c4.76-3.84,8.88-4.44,13.49-2.93Z"/><path class="cls-4" d="M249.47,124.46l.17-1.6a3.05,3.05,0,0,0-.74-.66c-5.53-.68-8.47,1.93-11.19,4a17.35,17.35,0,0,1-8.15,3,1.33,1.33,0,0,1-1.2-1,15,15,0,0,1-1.69.35v1.25c5.38.66,11.16-1.7,14.84-4.32A9.2,9.2,0,0,1,249.47,124.46Z"/><path class="cls-4" d="M252.59,139.72c-.32-4.55-.84-12.51-.84-17h-2.33c0,4.49-.52,12.45-.84,17a102.36,102.36,0,0,0,.26,11.85h3.49A102.36,102.36,0,0,0,252.59,139.72Z"/><path class="cls-4" d="M252.69,142.4c0,.08-.06,3.15-2.1,3.15s-2.1-3.07-2.11-3.15c0,4.28.36,9.17.36,9.17h3.49S252.72,146.68,252.69,142.4Z"/><path class="cls-4" d="M238.28,175.17h24.61a1.72,1.72,0,0,1,1.72,1.72V178a0,0,0,0,1,0,0h-28a0,0,0,0,1,0,0v-1.09A1.72,1.72,0,0,1,238.28,175.17Z"/><path class="cls-5" d="M237.47,175.37H263.7a1,1,0,0,1,.7.28,1.07,1.07,0,0,0-.88-.48H237.66a1.08,1.08,0,0,0-.89.48A1,1,0,0,1,237.47,175.37Z"/><rect class="cls-4" x="236.56" y="177.05" width="28.04" height="0.93"/><rect class="cls-4" x="235.32" y="177.65" width="30.53" height="2.97" rx="0.91"/><path class="cls-5" d="M235.68,177.91h29.81a.41.41,0,0,1,.36.22v0a.43.43,0,0,0-.42-.44H235.74a.43.43,0,0,0-.42.44v0A.41.41,0,0,1,235.68,177.91Z"/><path class="cls-4" d="M249.21,150.45H252a2.32,2.32,0,0,1,2.32,2.32v12.45a0,0,0,0,1,0,0H246.9a0,0,0,0,1,0,0V152.77A2.32,2.32,0,0,1,249.21,150.45Z"/><rect class="cls-4" x="246.9" y="159.64" width="7.37" height="3.61"/><path class="cls-4" d="M247.43,161h6.31a5.33,5.33,0,0,1,5.33,5.33v8.79a0,0,0,0,1,0,0h-17a0,0,0,0,1,0,0v-8.79A5.33,5.33,0,0,1,247.43,161Z"/><rect class="cls-6" x="242.09" y="173.21" width="16.98" height="1.96"/><rect class="cls-4" x="274.86" y="129.06" width="0.38" height="28.2"/><polygon class="cls-4" points="280.75 157.3 281.12 157.23 275.85 129.59 275.49 129.67 280.75 157.3"/><polygon class="cls-4" points="269.36 157.3 274.62 129.67 274.25 129.59 268.99 157.23 269.36 157.3"/><path class="cls-4" d="M275.05,164.63c-4.74,0-8.59-3.55-8.59-7.94h17.18C283.64,161.08,279.8,164.63,275.05,164.63Z"/><path class="cls-5" d="M266.55,157.83c0-.12,0-.24-.05-.37h17.1c0,.13,0,.25-.05.37Z"/><path class="cls-4" d="M251.7,124.46a9.2,9.2,0,0,1,8,1c3.69,2.62,9.46,5,14.84,4.32v-1.25a20.71,20.71,0,0,1-9.65-4.4c-4.75-3.84-8.88-4.44-13.49-2.93Z"/><path class="cls-4" d="M251.7,124.46l-.17-1.6a3.28,3.28,0,0,1,.74-.66c5.53-.68,8.47,1.93,11.19,4a17.35,17.35,0,0,0,8.15,3,1.32,1.32,0,0,0,1.2-1,15,15,0,0,0,1.69.35v1.25c-5.38.66-11.15-1.7-14.84-4.32A9.2,9.2,0,0,0,251.7,124.46Z"/><path class="cls-4" d="M273.17,129.06a1.88,1.88,0,1,0,1.88-1.94A1.92,1.92,0,0,0,273.17,129.06Z"/><path class="cls-7" d="M275.05,127.36a1.9,1.9,0,0,0-1.87,1.82s0-.08,0-.12a1.88,1.88,0,1,1,3.76,0v.12A1.91,1.91,0,0,0,275.05,127.36Z"/><path class="cls-4" d="M251.85,122.56h-2.53v-4a1.29,1.29,0,0,1,1.27-1.31h0a1.29,1.29,0,0,1,1.26,1.31Z"/><path class="cls-4" d="M251.85,119.81a2.9,2.9,0,0,0-2.53,0v2.75h2.53Z"/><path class="cls-4" d="M253,122.72a2.37,2.37,0,1,1-2.36-2.44A2.4,2.4,0,0,1,253,122.72Z"/><path class="cls-4" d="M228,129.06a1.88,1.88,0,1,1-1.88-1.94A1.91,1.91,0,0,1,228,129.06Z"/><path class="cls-7" d="M226.12,127.36a1.9,1.9,0,0,1,1.87,1.82s0-.08,0-.12a1.88,1.88,0,1,0-3.76,0,.49.49,0,0,0,0,.12A1.89,1.89,0,0,1,226.12,127.36Z"/><path class="cls-7" d="M250.48,120.45a2.45,2.45,0,0,1,2,3.68,2.51,2.51,0,0,0,.44-1.41,2.4,2.4,0,0,0-2.36-2.44,2.35,2.35,0,0,0-2,1.2A2.35,2.35,0,0,1,250.48,120.45Z"/><text class="cls-8" transform="translate(23.98 282.87)">Юридический центр<tspan class="cls-9"><tspan x="119.49" y="69.6">ПРОСТО</tspan></tspan></text><text class="cls-10" transform="translate(233.99 430.36)">2023</text></g></g></svg>